# Blender 4.3.0
# www.blender.org
mtllib Poignée.mtl
o Cube
v -1.000000 -0.508433 0.727378
v -1.000000 0.822532 0.727378
v -1.000000 -0.508433 -0.728663
v -1.000000 0.822532 -0.728663
v -0.114749 -0.295286 0.514232
v -0.327896 -0.508433 0.727378
v -0.125182 -0.361152 0.580097
v -0.155457 -0.420571 0.639516
v -0.202612 -0.467726 0.686671
v -0.262030 -0.498001 0.716946
v -0.327896 0.822532 0.727378
v -0.114749 0.609386 0.514232
v -0.262030 0.812100 0.716946
v -0.202612 0.781825 0.686671
v -0.155457 0.734670 0.639516
v -0.125182 0.675251 0.580097
v -0.114749 -0.295286 -0.515516
v -0.327896 -0.508433 -0.728663
v -0.125182 -0.361152 -0.581382
v -0.155457 -0.420571 -0.640801
v -0.202612 -0.467726 -0.687955
v -0.262030 -0.498001 -0.718231
v -0.114749 0.609386 -0.515516
v -0.327896 0.822532 -0.728663
v -0.125182 0.675251 -0.581382
v -0.155457 0.734670 -0.640801
v -0.202612 0.781825 -0.687955
v -0.262030 0.812100 -0.718231
v -0.343170 -2.641502 0.000000
v -0.236925 -2.600505 0.000000
v -0.165413 -2.511877 0.000000
v -0.147796 -2.399368 0.000000
v -0.188794 -2.293123 0.000000
v -0.277421 -2.221611 0.000000
v -0.389930 -2.203994 0.000000
v -0.496175 -2.244992 0.000000
v -0.567687 -2.333619 0.000000
v -0.585304 -2.446128 0.000000
v -0.544306 -2.552373 0.000000
v -0.455679 -2.623885 0.000000
v -0.384194 -2.257662 -1.060600
v -0.277217 -2.223521 -1.041654
v -0.203703 -2.153626 -0.989893
v -0.183350 -2.066706 -0.919186
v -0.221613 -1.986050 -0.848480
v -0.308238 -1.933272 -0.796719
v -0.420015 -1.922511 -0.777773
v -0.526992 -1.956652 -0.796719
v -0.600506 -2.026546 -0.848480
v -0.620859 -2.113467 -0.919186
v -0.582596 -2.194122 -0.989893
v -0.495971 -2.246901 -1.041654
v -0.488072 -1.285743 -1.624933
v -0.379239 -1.268964 -1.595906
v -0.300655 -1.246502 -1.516604
v -0.273378 -1.224377 -1.408275
v -0.304715 -1.208516 -1.299946
v -0.386271 -1.203170 -1.220644
v -0.496192 -1.209771 -1.191617
v -0.605025 -1.226550 -1.220644
v -0.683608 -1.249012 -1.299946
v -0.710886 -1.271137 -1.408275
v -0.679548 -1.286998 -1.516604
v -0.597993 -1.292344 -1.595906
v -0.606197 -0.180519 -1.428942
v -0.495254 -0.183482 -1.403416
v -0.410905 -0.214959 -1.333679
v -0.375753 -0.266515 -1.238416
v -0.399215 -0.324336 -1.143154
v -0.475006 -0.372929 -1.073416
v -0.582817 -0.399273 -1.047891
v -0.693760 -0.396309 -1.073416
v -0.778108 -0.364832 -1.143154
v -0.813261 -0.313276 -1.238416
v -0.789799 -0.255455 -1.333679
v -0.714008 -0.206863 -1.403416
v -0.683298 0.540866 -0.564334
v -0.570977 0.525016 -0.554253
v -0.482866 0.458333 -0.526711
v -0.442573 0.358684 -0.489089
v -0.460896 0.252771 -0.451467
v -0.532924 0.168972 -0.423926
v -0.639357 0.129743 -0.413845
v -0.751678 0.145592 -0.423926
v -0.839789 0.212275 -0.451467
v -0.880082 0.311924 -0.489089
v -0.861759 0.417837 -0.526711
v -0.789731 0.501635 -0.554253
v -0.683298 0.540866 0.564333
v -0.570977 0.525016 0.554252
v -0.482866 0.458333 0.526711
v -0.442573 0.358684 0.489089
v -0.460896 0.252771 0.451466
v -0.532924 0.168973 0.423925
v -0.639357 0.129743 0.413844
v -0.751678 0.145593 0.423925
v -0.839789 0.212276 0.451466
v -0.880082 0.311924 0.489089
v -0.861759 0.417837 0.526711
v -0.789731 0.501636 0.554252
v -0.606197 -0.180519 1.428942
v -0.495254 -0.183482 1.403416
v -0.410905 -0.214959 1.333679
v -0.375753 -0.266515 1.238416
v -0.399215 -0.324336 1.143154
v -0.475006 -0.372929 1.073416
v -0.582817 -0.399273 1.047891
v -0.693760 -0.396309 1.073416
v -0.778108 -0.364832 1.143154
v -0.813261 -0.313276 1.238416
v -0.789799 -0.255455 1.333679
v -0.714008 -0.206863 1.403416
v -0.488072 -1.285743 1.624933
v -0.379239 -1.268964 1.595906
v -0.300655 -1.246502 1.516604
v -0.273378 -1.224377 1.408275
v -0.304715 -1.208516 1.299946
v -0.386271 -1.203170 1.220644
v -0.496192 -1.209771 1.191617
v -0.605025 -1.226550 1.220644
v -0.683608 -1.249012 1.299946
v -0.710886 -1.271137 1.408275
v -0.679548 -1.286998 1.516604
v -0.597993 -1.292344 1.595906
v -0.384194 -2.257662 1.060600
v -0.277217 -2.223521 1.041654
v -0.203703 -2.153626 0.989893
v -0.183350 -2.066706 0.919186
v -0.221613 -1.986050 0.848480
v -0.308238 -1.933272 0.796719
v -0.420015 -1.922511 0.777773
v -0.526992 -1.956652 0.796719
v -0.600506 -2.026546 0.848480
v -0.620859 -2.113467 0.919186
v -0.582596 -2.194122 0.989893
v -0.495971 -2.246901 1.041654
vn -1.0000 -0.0000 -0.0000
vn -0.0000 -0.0000 1.0000
vn -0.0000 1.0000 -0.0000
vn 1.0000 -0.0000 -0.0000
vn -0.0000 -0.0000 -1.0000
vn 0.9877 -0.0000 -0.1564
vn 0.8910 -0.0000 -0.4540
vn 0.7071 -0.0000 -0.7071
vn 0.4540 -0.0000 -0.8910
vn 0.1564 -0.0000 -0.9877
vn 0.1564 -0.9877 -0.0000
vn 0.4540 -0.8910 -0.0000
vn 0.7071 -0.7071 -0.0000
vn 0.8910 -0.4540 -0.0000
vn 0.9877 -0.1564 -0.0000
vn 0.1564 0.9877 -0.0000
vn 0.4540 0.8910 -0.0000
vn 0.7071 0.7071 -0.0000
vn 0.8910 0.4540 -0.0000
vn 0.9877 0.1564 -0.0000
vn 0.1564 -0.0000 0.9877
vn 0.4540 -0.0000 0.8910
vn 0.7071 -0.0000 0.7071
vn 0.8910 -0.0000 0.4540
vn 0.9877 -0.0000 0.1564
vn -0.0000 -1.0000 -0.0000
vn 0.3396 -0.8801 -0.3317
vn 0.7537 -0.6081 -0.2492
vn 0.9836 -0.1540 -0.0938
vn 0.9288 0.3584 0.0938
vn 0.6081 0.7537 0.2492
vn 0.1459 0.9320 0.3317
vn -0.3396 0.8801 0.3317
vn -0.7537 0.6081 0.2492
vn -0.9836 0.1540 0.0938
vn -0.9288 -0.3584 -0.0938
vn -0.6081 -0.7537 -0.2492
vn -0.1459 -0.9320 -0.3317
vn 0.2943 -0.4562 -0.8398
vn 0.7196 -0.2895 -0.6311
vn 0.9708 -0.0341 -0.2375
vn 0.9417 0.2385 0.2375
vn 0.6422 0.4351 0.6311
vn 0.1913 0.5081 0.8398
vn -0.2943 0.4562 0.8398
vn -0.7196 0.2895 0.6311
vn -0.9708 0.0341 0.2375
vn -0.9417 -0.2385 -0.2375
vn -0.6422 -0.4351 -0.6311
vn -0.1913 -0.5081 -0.8398
vn 0.2249 0.1934 -0.9550
vn 0.6675 0.1986 -0.7177
vn 0.9512 0.1495 -0.2700
vn 0.9613 0.0549 0.2700
vn 0.6944 -0.0531 0.7177
vn 0.2607 -0.1415 0.9550
vn -0.2249 -0.1934 0.9550
vn -0.6675 -0.1986 0.7177
vn -0.9512 -0.1495 0.2700
vn -0.9613 -0.0549 -0.2700
vn -0.6944 0.0531 -0.7177
vn -0.2607 0.1415 -0.9550
vn 0.1638 0.7646 -0.6233
vn 0.6216 0.6279 -0.4684
vn 0.9339 0.3111 -0.1763
vn 0.9785 -0.1067 0.1763
vn 0.7402 -0.4823 0.4684
vn 0.3217 -0.7127 0.6233
vn -0.1638 -0.7646 0.6233
vn -0.6216 -0.6279 0.4684
vn -0.9339 -0.3111 0.1763
vn -0.9785 0.1067 -0.1763
vn -0.7402 0.4823 -0.4684
vn -0.3217 0.7127 -0.6233
vn 0.1397 0.9902 -0.0000
vn 0.6035 0.7974 -0.0000
vn 0.9271 0.3749 -0.0000
vn 0.9854 -0.1705 -0.0000
vn 0.7584 -0.6518 -0.0000
vn 0.3458 -0.9383 -0.0000
vn -0.1397 -0.9902 -0.0000
vn -0.6035 -0.7974 -0.0000
vn -0.9271 -0.3749 -0.0000
vn -0.9854 0.1705 -0.0000
vn -0.7584 0.6518 -0.0000
vn -0.3458 0.9383 -0.0000
vn 0.1638 0.7646 0.6233
vn 0.6216 0.6279 0.4684
vn 0.9339 0.3111 0.1763
vn 0.9785 -0.1067 -0.1763
vn 0.7402 -0.4823 -0.4684
vn 0.3217 -0.7127 -0.6233
vn -0.1638 -0.7646 -0.6233
vn -0.6216 -0.6279 -0.4684
vn -0.9339 -0.3111 -0.1763
vn -0.9785 0.1067 0.1763
vn -0.7402 0.4823 0.4684
vn -0.3217 0.7127 0.6233
vn 0.2249 0.1934 0.9550
vn 0.6675 0.1986 0.7177
vn 0.9512 0.1495 0.2700
vn 0.9613 0.0549 -0.2700
vn 0.6944 -0.0531 -0.7177
vn 0.2607 -0.1415 -0.9550
vn -0.2249 -0.1934 -0.9550
vn -0.6675 -0.1986 -0.7177
vn -0.9512 -0.1495 -0.2701
vn -0.9613 -0.0549 0.2700
vn -0.6944 0.0531 0.7177
vn -0.2607 0.1415 0.9550
vn 0.2943 -0.4562 0.8398
vn 0.7196 -0.2895 0.6311
vn 0.9708 -0.0341 0.2375
vn 0.9417 0.2385 -0.2375
vn 0.6422 0.4351 -0.6311
vn 0.1913 0.5081 -0.8398
vn -0.2943 0.4562 -0.8398
vn -0.7196 0.2895 -0.6311
vn -0.9708 0.0341 -0.2375
vn -0.9417 -0.2385 0.2375
vn -0.6422 -0.4351 0.6311
vn -0.1913 -0.5081 0.8398
vn 0.3396 -0.8801 0.3317
vn 0.7537 -0.6081 0.2492
vn 0.9836 -0.1540 0.0938
vn 0.9288 0.3584 -0.0938
vn 0.6081 0.7537 -0.2492
vn 0.1459 0.9320 -0.3317
vn -0.3396 0.8801 -0.3317
vn -0.7537 0.6081 -0.2492
vn -0.9836 0.1540 -0.0938
vn -0.9288 -0.3584 0.0938
vn -0.6081 -0.7537 0.2492
vn -0.1459 -0.9320 0.3317
vt 0.375000 0.000000
vt 0.625000 0.000000
vt 0.625000 0.250000
vt 0.375000 0.250000
vt 0.375000 0.810194
vt 0.625000 0.810194
vt 0.625000 1.000000
vt 0.375000 1.000000
vt 0.685194 0.500000
vt 0.875000 0.500000
vt 0.875000 0.750000
vt 0.685194 0.750000
vt 0.401643 0.526643
vt 0.598357 0.526643
vt 0.598357 0.723357
vt 0.401643 0.723357
vt 0.625000 0.439806
vt 0.375000 0.439806
vt 0.393410 0.518410
vt 0.606590 0.518410
vt 0.385983 0.510983
vt 0.614017 0.510983
vt 0.380088 0.475187
vt 0.619912 0.475187
vt 0.376304 0.458407
vt 0.623696 0.458407
vt 0.314806 0.750000
vt 0.314806 0.500000
vt 0.333407 0.501304
vt 0.333407 0.748696
vt 0.350187 0.505088
vt 0.350187 0.744912
vt 0.385983 0.739017
vt 0.393410 0.731590
vt 0.666593 0.748696
vt 0.666593 0.501304
vt 0.649813 0.744912
vt 0.649813 0.505088
vt 0.614017 0.739017
vt 0.606590 0.731590
vt 0.376304 0.791593
vt 0.623696 0.791593
vt 0.380088 0.774813
vt 0.619912 0.774813
vt 0.125000 0.500000
vt 0.125000 0.750000
vt 0.555556 0.500000
vt 0.666667 0.500000
vt 0.666667 0.583333
vt 0.555556 0.583333
vt 0.666667 0.666667
vt 0.555556 0.666667
vt 0.666667 0.750000
vt 0.555556 0.750000
vt 0.666667 0.833333
vt 0.555556 0.833333
vt 0.666667 0.916667
vt 0.555556 0.916667
vt 0.666667 1.000000
vt 0.555556 1.000000
vt 0.555556 0.000000
vt 0.666667 0.000000
vt 0.666667 0.083333
vt 0.555556 0.083333
vt 0.666667 0.166667
vt 0.555556 0.166667
vt 0.666667 0.250000
vt 0.555556 0.250000
vt 0.666667 0.333333
vt 0.555556 0.333333
vt 0.666667 0.416667
vt 0.555556 0.416667
vt 0.777778 0.500000
vt 0.777778 0.583333
vt 0.777778 0.666667
vt 0.777778 0.750000
vt 0.777778 0.833333
vt 0.777778 0.916667
vt 0.777778 1.000000
vt 0.777778 0.000000
vt 0.777778 0.083333
vt 0.777778 0.166667
vt 0.777778 0.250000
vt 0.777778 0.333333
vt 0.777778 0.416667
vt 0.888889 0.500000
vt 0.888889 0.583333
vt 0.888889 0.666667
vt 0.888889 0.750000
vt 0.888889 0.833333
vt 0.888889 0.916667
vt 0.888889 1.000000
vt 0.888889 0.000000
vt 0.888889 0.083333
vt 0.888889 0.166667
vt 0.888889 0.250000
vt 0.888889 0.333333
vt 0.888889 0.416667
vt 1.000000 0.500000
vt 1.000000 0.583333
vt 1.000000 0.666667
vt 1.000000 0.750000
vt 1.000000 0.833333
vt 1.000000 0.916667
vt 1.000000 1.000000
vt 1.000000 0.000000
vt 1.000000 0.083333
vt 1.000000 0.166667
vt 1.000000 0.250000
vt 1.000000 0.333333
vt 1.000000 0.416667
vt 0.000000 0.500000
vt 0.111111 0.500000
vt 0.111111 0.583333
vt 0.000000 0.583333
vt 0.111111 0.666667
vt 0.000000 0.666667
vt 0.111111 0.750000
vt 0.000000 0.750000
vt 0.111111 0.833333
vt 0.000000 0.833333
vt 0.111111 0.916667
vt 0.000000 0.916667
vt 0.111111 1.000000
vt 0.000000 1.000000
vt 0.000000 0.000000
vt 0.111111 0.000000
vt 0.111111 0.083333
vt 0.000000 0.083333
vt 0.111111 0.166667
vt 0.000000 0.166667
vt 0.111111 0.250000
vt 0.000000 0.250000
vt 0.111111 0.333333
vt 0.000000 0.333333
vt 0.111111 0.416667
vt 0.000000 0.416667
vt 0.222222 0.500000
vt 0.222222 0.583333
vt 0.222222 0.666667
vt 0.222222 0.750000
vt 0.222222 0.833333
vt 0.222222 0.916667
vt 0.222222 1.000000
vt 0.222222 0.000000
vt 0.222222 0.083333
vt 0.222222 0.166667
vt 0.222222 0.250000
vt 0.222222 0.333333
vt 0.222222 0.416667
vt 0.333333 0.500000
vt 0.333333 0.583333
vt 0.333333 0.666667
vt 0.333333 0.750000
vt 0.333333 0.833333
vt 0.333333 0.916667
vt 0.333333 1.000000
vt 0.333333 0.000000
vt 0.333333 0.083333
vt 0.333333 0.166667
vt 0.333333 0.250000
vt 0.333333 0.333333
vt 0.333333 0.416667
vt 0.444444 0.500000
vt 0.444444 0.583333
vt 0.444444 0.666667
vt 0.444444 0.750000
vt 0.444444 0.833333
vt 0.444444 0.916667
vt 0.444444 1.000000
vt 0.444444 0.000000
vt 0.444444 0.083333
vt 0.444444 0.166667
vt 0.444444 0.250000
vt 0.444444 0.333333
vt 0.444444 0.416667
s 0
f 1/1/1 2/2/1 4/3/1 3/4/1
f 6/5/2 11/6/2 2/7/2 1/8/2
f 24/9/3 4/10/3 2/11/3 11/12/3
f 17/13/4 23/14/4 12/15/4 5/16/4
f 3/4/5 4/3/5 24/17/5 18/18/5
f 23/14/6 17/13/6 19/19/6 25/20/6
f 25/20/7 19/19/7 20/21/7 26/22/7
f 26/22/8 20/21/8 21/23/8 27/24/8
f 27/24/9 21/23/9 22/25/9 28/26/9
f 28/26/10 22/25/10 18/18/10 24/17/10
f 6/27/11 18/28/11 22/29/11 10/30/11
f 10/30/12 22/29/12 21/31/12 9/32/12
f 9/32/13 21/31/13 20/21/13 8/33/13
f 8/33/14 20/21/14 19/19/14 7/34/14
f 7/34/15 19/19/15 17/13/15 5/16/15
f 24/9/16 11/12/16 13/35/16 28/36/16
f 28/36/17 13/35/17 14/37/17 27/38/17
f 27/38/18 14/37/18 15/39/18 26/22/18
f 26/22/19 15/39/19 16/40/19 25/20/19
f 25/20/20 16/40/20 12/15/20 23/14/20
f 11/6/21 6/5/21 10/41/21 13/42/21
f 13/42/22 10/41/22 9/43/22 14/44/22
f 14/44/23 9/43/23 8/33/23 15/39/23
f 15/39/24 8/33/24 7/34/24 16/40/24
f 16/40/25 7/34/25 5/16/25 12/15/25
f 3/45/26 18/28/26 6/27/26 1/46/26
f 29/47/27 41/48/27 42/49/27 30/50/27
f 30/50/28 42/49/28 43/51/28 31/52/28
f 31/52/29 43/51/29 44/53/29 32/54/29
f 32/54/30 44/53/30 45/55/30 33/56/30
f 33/56/31 45/55/31 46/57/31 34/58/31
f 34/58/32 46/57/32 47/59/32 35/60/32
f 35/61/33 47/62/33 48/63/33 36/64/33
f 36/64/34 48/63/34 49/65/34 37/66/34
f 37/66/35 49/65/35 50/67/35 38/68/35
f 38/68/36 50/67/36 51/69/36 39/70/36
f 39/70/37 51/69/37 52/71/37 40/72/37
f 40/72/38 52/71/38 41/48/38 29/47/38
f 41/48/39 53/73/39 54/74/39 42/49/39
f 42/49/40 54/74/40 55/75/40 43/51/40
f 43/51/41 55/75/41 56/76/41 44/53/41
f 44/53/42 56/76/42 57/77/42 45/55/42
f 45/55/43 57/77/43 58/78/43 46/57/43
f 46/57/44 58/78/44 59/79/44 47/59/44
f 47/62/45 59/80/45 60/81/45 48/63/45
f 48/63/46 60/81/46 61/82/46 49/65/46
f 49/65/47 61/82/47 62/83/47 50/67/47
f 50/67/48 62/83/48 63/84/48 51/69/48
f 51/69/49 63/84/49 64/85/49 52/71/49
f 52/71/50 64/85/50 53/73/50 41/48/50
f 53/73/51 65/86/51 66/87/51 54/74/51
f 54/74/52 66/87/52 67/88/52 55/75/52
f 55/75/53 67/88/53 68/89/53 56/76/53
f 56/76/54 68/89/54 69/90/54 57/77/54
f 57/77/55 69/90/55 70/91/55 58/78/55
f 58/78/56 70/91/56 71/92/56 59/79/56
f 59/80/57 71/93/57 72/94/57 60/81/57
f 60/81/58 72/94/58 73/95/58 61/82/58
f 61/82/59 73/95/59 74/96/59 62/83/59
f 62/83/60 74/96/60 75/97/60 63/84/60
f 63/84/61 75/97/61 76/98/61 64/85/61
f 64/85/62 76/98/62 65/86/62 53/73/62
f 65/86/63 77/99/63 78/100/63 66/87/63
f 66/87/64 78/100/64 79/101/64 67/88/64
f 67/88/65 79/101/65 80/102/65 68/89/65
f 68/89/66 80/102/66 81/103/66 69/90/66
f 69/90/67 81/103/67 82/104/67 70/91/67
f 70/91/68 82/104/68 83/105/68 71/92/68
f 71/93/69 83/106/69 84/107/69 72/94/69
f 72/94/70 84/107/70 85/108/70 73/95/70
f 73/95/71 85/108/71 86/109/71 74/96/71
f 74/96/72 86/109/72 87/110/72 75/97/72
f 75/97/73 87/110/73 88/111/73 76/98/73
f 76/98/74 88/111/74 77/99/74 65/86/74
f 77/112/75 89/113/75 90/114/75 78/115/75
f 78/115/76 90/114/76 91/116/76 79/117/76
f 79/117/77 91/116/77 92/118/77 80/119/77
f 80/119/78 92/118/78 93/120/78 81/121/78
f 81/121/79 93/120/79 94/122/79 82/123/79
f 82/123/80 94/122/80 95/124/80 83/125/80
f 83/126/81 95/127/81 96/128/81 84/129/81
f 84/129/82 96/128/82 97/130/82 85/131/82
f 85/131/83 97/130/83 98/132/83 86/133/83
f 86/133/84 98/132/84 99/134/84 87/135/84
f 87/135/85 99/134/85 100/136/85 88/137/85
f 88/137/86 100/136/86 89/113/86 77/112/86
f 89/113/87 101/138/87 102/139/87 90/114/87
f 90/114/88 102/139/88 103/140/88 91/116/88
f 91/116/89 103/140/89 104/141/89 92/118/89
f 92/118/90 104/141/90 105/142/90 93/120/90
f 93/120/91 105/142/91 106/143/91 94/122/91
f 94/122/92 106/143/92 107/144/92 95/124/92
f 95/127/93 107/145/93 108/146/93 96/128/93
f 96/128/94 108/146/94 109/147/94 97/130/94
f 97/130/95 109/147/95 110/148/95 98/132/95
f 98/132/96 110/148/96 111/149/96 99/134/96
f 99/134/97 111/149/97 112/150/97 100/136/97
f 100/136/98 112/150/98 101/138/98 89/113/98
f 101/138/99 113/151/99 114/152/99 102/139/99
f 102/139/100 114/152/100 115/153/100 103/140/100
f 103/140/101 115/153/101 116/154/101 104/141/101
f 104/141/102 116/154/102 117/155/102 105/142/102
f 105/142/103 117/155/103 118/156/103 106/143/103
f 106/143/104 118/156/104 119/157/104 107/144/104
f 107/145/105 119/158/105 120/159/105 108/146/105
f 108/146/106 120/159/106 121/160/106 109/147/106
f 109/147/107 121/160/107 122/161/107 110/148/107
f 110/148/108 122/161/108 123/162/108 111/149/108
f 111/149/109 123/162/109 124/163/109 112/150/109
f 112/150/110 124/163/110 113/151/110 101/138/110
f 113/151/111 125/164/111 126/165/111 114/152/111
f 114/152/112 126/165/112 127/166/112 115/153/112
f 115/153/113 127/166/113 128/167/113 116/154/113
f 116/154/114 128/167/114 129/168/114 117/155/114
f 117/155/115 129/168/115 130/169/115 118/156/115
f 118/156/116 130/169/116 131/170/116 119/157/116
f 119/158/117 131/171/117 132/172/117 120/159/117
f 120/159/118 132/172/118 133/173/118 121/160/118
f 121/160/119 133/173/119 134/174/119 122/161/119
f 122/161/120 134/174/120 135/175/120 123/162/120
f 123/162/121 135/175/121 136/176/121 124/163/121
f 124/163/122 136/176/122 125/164/122 113/151/122
f 125/164/123 29/47/123 30/50/123 126/165/123
f 126/165/124 30/50/124 31/52/124 127/166/124
f 127/166/125 31/52/125 32/54/125 128/167/125
f 128/167/126 32/54/126 33/56/126 129/168/126
f 129/168/127 33/56/127 34/58/127 130/169/127
f 130/169/128 34/58/128 35/60/128 131/170/128
f 131/171/129 35/61/129 36/64/129 132/172/129
f 132/172/130 36/64/130 37/66/130 133/173/130
f 133/173/131 37/66/131 38/68/131 134/174/131
f 134/174/132 38/68/132 39/70/132 135/175/132
f 135/175/133 39/70/133 40/72/133 136/176/133
f 136/176/134 40/72/134 29/47/134 125/164/134
